<?xml version="1.0" encoding="UTF-8" standalone="no"?>
<!-- Created with Inkscape (http://www.inkscape.org/) -->

<svg
   version="1.1"
   id="svg2"
   xml:space="preserve"
   width="283.46399"
   height="94.488136"
   viewBox="0 0 283.46399 94.488136"
   sodipodi:docname="bricomarche.ai"
   xmlns:inkscape="http://www.inkscape.org/namespaces/inkscape"
   xmlns:sodipodi="http://sodipodi.sourceforge.net/DTD/sodipodi-0.dtd"
   xmlns="http://www.w3.org/2000/svg"
   xmlns:svg="http://www.w3.org/2000/svg"><defs
     id="defs6"><clipPath
       clipPathUnits="userSpaceOnUse"
       id="clipPath16"><path
         d="M 0,70.866 H 212.598 V 0 H 0 Z"
         id="path14" /></clipPath></defs><sodipodi:namedview
     id="namedview4"
     pagecolor="#ffffff"
     bordercolor="#666666"
     borderopacity="1.0"
     inkscape:pageshadow="2"
     inkscape:pageopacity="0.0"
     inkscape:pagecheckerboard="0" /><g
     id="g8"
     inkscape:groupmode="layer"
     inkscape:label="bricomarche"
     transform="matrix(1.3333333,0,0,-1.3333333,0,94.488133)"><g
       id="g10"><g
         id="g12"
         clip-path="url(#clipPath16)"><g
           id="g18"
           transform="translate(127.6895,37.0796)"><path
             d="m 0,0 c -1.403,-4.982 -3.354,-8.311 -6.09,-10.4 -1.65,-1.26 -3.612,-2.1 -6.066,-2.571 l -1.304,-5.266 h 73.485 c 4.187,0 6.481,1.323 7.258,4.463 C 68.521,-8.771 70.692,0 70.692,0 Z"
             style="fill:#ffe500;fill-opacity:1;fill-rule:nonzero;stroke:none"
             id="path20" /></g><g
           id="g22"
           transform="translate(137.4004,33.293)"><path
             d="M 0,0 -4.559,-7.283 -5.496,0 h -2.696 l -2.64,-10.664 h 2.16 l 1.527,6.169 0.776,-6.169 h 1.854 l 3.79,6.1 -1.51,-6.1 H 0.082 L 2.721,0 Z"
             style="fill:#1a171b;fill-opacity:1;fill-rule:nonzero;stroke:none"
             id="path24" /></g><g
           id="g26"
           transform="translate(145.8975,26.4795)"><path
             d="m 0,0 h -2.609 c 0.426,0.679 1.668,2.68 2.174,3.499 z M -0.636,6.886 -7.429,-3.851 h 2.434 l 1.157,1.87 H 0.239 L 0.47,-3.851 H 2.968 L 1.489,6.886 Z"
             style="fill:#1a171b;fill-opacity:1;fill-rule:nonzero;stroke:none"
             id="path28" /></g><g
           id="g30"
           transform="translate(157.5889,30.4512)"><path
             d="m 0,0 c 0.003,-0.209 -0.031,-0.478 -0.114,-0.811 -0.408,-1.543 -0.958,-1.707 -2.055,-1.73 h -1.88 l 0.837,3.375 h 1.926 C -0.871,0.835 -0.535,0.795 -0.328,0.678 -0.127,0.56 -0.013,0.391 0,0 M 1.567,2.435 C 0.987,2.75 0.183,2.84 -0.839,2.842 H -5.085 L -7.729,-7.821 h 2.375 l 0.817,3.3 h 1.754 l 1.407,-3.3 h 2.698 l -1.609,3.798 c 1.233,0.334 2.071,1.203 2.549,3.169 0.153,0.618 0.226,1.137 0.219,1.579 C 2.474,1.552 2.152,2.12 1.567,2.435"
             style="fill:#1a171b;fill-opacity:1;fill-rule:nonzero;stroke:none"
             id="path32" /></g><g
           id="g34"
           transform="translate(165.0352,24.5674)"><path
             d="m 0,0 c -1.285,0.028 -1.722,0.37 -1.762,1.405 -0.007,0.417 0.073,0.948 0.234,1.596 l 0.188,0.767 c 0.606,2.348 1.301,2.972 3.065,2.991 1.091,0 1.573,-0.09 2.656,-0.272 L 5.293,8.528 C 4.859,8.641 3.9,8.884 2.2,8.883 -0.666,8.902 -2.811,7.962 -3.91,3.433 -4.17,2.386 -4.287,1.531 -4.276,0.829 c 0.014,-1.16 0.405,-1.919 1.088,-2.354 0.682,-0.434 1.614,-0.553 2.722,-0.554 h 0.009 c 1.68,0 2.586,0.194 3.201,0.371 l 0.11,2.036 C 2.212,0.208 1.277,0.001 0,0"
             style="fill:#1a171b;fill-opacity:1;fill-rule:nonzero;stroke:none"
             id="path36" /></g><g
           id="g38"
           transform="translate(178.7412,33.293)"><path
             d="M 0,0 -0.994,-4.021 H -5.323 L -4.326,0 h -2.386 l -2.64,-10.663 h 2.387 l 1.097,4.434 h 4.328 l -1.1,-4.434 h 2.401 L 2.399,0 Z"
             style="fill:#1a171b;fill-opacity:1;fill-rule:nonzero;stroke:none"
             id="path40" /></g><g
           id="g42"
           transform="translate(190.0391,31.1699)"><path
             d="m 0,0 0.524,2.123 h -2.726 l 1.453,1.24 h -3.11 L -4.776,2.123 H -6.678 L -9.319,-8.541 h 7.202 l 0.513,2.08 h -4.811 l 0.576,2.326 h 3.793 l 0.525,2.122 h -3.793 l 0.498,2.014 z"
             style="fill:#1a171b;fill-opacity:1;fill-rule:nonzero;stroke:none"
             id="path44" /></g><g
           id="g46"
           transform="translate(86.1123,37.8823)"><path
             d="m 0,0 0.469,1.902 c 1.001,4.041 2.782,6.144 6.481,6.144 3.942,0 7.346,-0.041 7.346,-0.041 l 1.42,5.745 c 0,0 -2.601,0.164 -7.317,0.164 -7.683,0 -12.645,-2.349 -15.241,-12.838 -2.936,-11.863 2.446,-13.072 8.83,-13.072 4.52,0 7.388,0.121 7.388,0.121 l 1.438,5.815 c 0,0 -2.522,-0.098 -7.383,-0.098 C 0.589,-6.158 -1.397,-5.648 0,0"
             style="fill:#e2001a;fill-opacity:1;fill-rule:nonzero;stroke:none"
             id="path48" /></g><g
           id="g50"
           transform="translate(34.1455,43.9175)"><path
             d="m 0,0 c -0.499,-2.011 -1.531,-2.392 -2.951,-2.392 h -6.436 l 1.16,4.678 h 6.434 C -0.371,2.286 0.496,2.012 0,0 m -1.806,-9.952 c -0.498,-2.008 -1.58,-2.599 -3.001,-2.599 h -7.092 l 1.305,5.268 h 7.092 c 1.42,0 2.195,-0.655 1.696,-2.669 m 3.626,5.409 c 2.557,0.66 4.357,1.907 5.351,5.93 1.486,5.999 -3.02,6.309 -7.626,6.309 h -13.158 l -6.316,-25.518 h 13.52 c 6.635,0 9.941,1.839 11.263,7.178 1.055,4.263 -0.795,5.617 -3.034,6.101"
             style="fill:#e2001a;fill-opacity:1;fill-rule:nonzero;stroke:none"
             id="path52" /></g><g
           id="g54"
           transform="translate(119.1934,39.8608)"><path
             d="m 0,0 -0.499,-2.012 c -1.195,-4.819 -3.208,-6.823 -7.471,-6.823 -5.071,0 -5.323,1.642 -4.009,6.944 l 0.497,1.959 c 1.414,5.726 4.392,6.608 7.351,6.608 C -0.014,6.676 1.443,5.84 0,0 m -2.773,12.164 c -7.086,0 -13.268,-1.789 -16.082,-13.169 -3.014,-12.17 3.013,-13.174 9.56,-13.174 8.982,0 13.527,2.574 16.172,13.242 2.943,11.91 -3.192,13.101 -9.65,13.101"
             style="fill:#e2001a;fill-opacity:1;fill-rule:nonzero;stroke:none"
             id="path56" /></g><g
           id="g58"
           transform="translate(58.792,42.3228)"><path
             d="m 0,0 c -0.713,-2.884 -1.813,-3.31 -3.965,-3.31 h -4.3 l 1.764,7.157 h 4.265 C -0.19,3.847 0.81,3.259 0,0 M 6.814,0.071 C 9.041,9.065 4.63,9.291 -0.855,9.291 H -11.88 l -6.315,-25.518 h 6.727 l 3.209,12.906 5.605,-12.906 H 4.844 L 0.621,-6.98 c 3.25,0.764 4.949,2.023 6.193,7.051"
             style="fill:#e2001a;fill-opacity:1;fill-rule:nonzero;stroke:none"
             id="path60" /></g><g
           id="g62"
           transform="translate(72.0127,51.6138)"><path
             d="M 0,0 -6.315,-25.518 H 0.513 L 6.828,0 Z"
             style="fill:#e2001a;fill-opacity:1;fill-rule:nonzero;stroke:none"
             id="path64" /></g></g></g></g></svg>
