<?xml version="1.0" encoding="UTF-8" standalone="no"?>
<!-- Created with Inkscape (http://www.inkscape.org/) -->

<svg
   version="1.1"
   id="svg2"
   xml:space="preserve"
   width="561.25336"
   height="793.70667"
   viewBox="0 0 561.25336 793.70667"
   sodipodi:docname="e-leclerc.ai"
   xmlns:inkscape="http://www.inkscape.org/namespaces/inkscape"
   xmlns:sodipodi="http://sodipodi.sourceforge.net/DTD/sodipodi-0.dtd"
   xmlns="http://www.w3.org/2000/svg"
   xmlns:svg="http://www.w3.org/2000/svg"><defs
     id="defs6"><clipPath
       clipPathUnits="userSpaceOnUse"
       id="clipPath16"><path
         d="M 0,595.28 H 420.94 V 0 H 0 Z"
         id="path14" /></clipPath></defs><sodipodi:namedview
     id="namedview4"
     pagecolor="#ffffff"
     bordercolor="#666666"
     borderopacity="1.0"
     inkscape:pageshadow="2"
     inkscape:pageopacity="0.0"
     inkscape:pagecheckerboard="0" /><g
     id="g8"
     inkscape:groupmode="layer"
     inkscape:label="e-leclerc"
     transform="matrix(1.3333333,0,0,-1.3333333,0,793.70667)"><g
       id="g10"><g
         id="g12"
         clip-path="url(#clipPath16)"><g
           id="g18"
           transform="translate(204.7275,324.104)"><path
             d="M 0,0 H 8.485 V -4.117 H 6.598 L 4.495,-6.22 3.901,-7.676 v -10.373 l 5.896,-0.539 c 0,0 6.221,1.005 8.811,4.637 2.588,3.632 1.887,10.014 0.971,12.064 C 18.661,0.162 14.077,4.999 8.936,4.71 3.793,4.422 0.954,2.75 0.72,2.157 0.485,1.564 0,0 0,0"
             style="fill:#f68429;fill-opacity:1;fill-rule:nonzero;stroke:none"
             id="path20" /></g><path
           d="m 154.268,267.338 h 5.884 v -5.603 h -5.884 z"
           style="fill:#1f4fa2;fill-opacity:1;fill-rule:nonzero;stroke:none"
           id="path22" /><g
           id="g24"
           transform="translate(249.7769,281.7686)"><path
             d="m 0,0 h 12.502 c 0.996,0 4.418,-1.318 4.418,-5.08 0,-3.762 -2.959,-4.965 -2.959,-4.965 0,0 0.771,-0.129 1.287,-1.094 1.164,-2.182 1.19,-4.707 1.19,-4.707 h 1.64 v -4.187 H 12.34 c 0,0 -1.479,5.538 -1.961,7.062 -0.483,1.525 -3.022,1.222 -3.022,1.222 v -4.097 h 1.35 v -4.187 H 0 v 4.187 H 2.039 V -4.045 H 0 Z M 7.357,-4.045 7.354,-7.834 h 2.417 c 0.708,0 1.344,0.91 1.344,2.003 0,1.094 -0.832,1.786 -1.347,1.786 z"
             style="fill:#1f4fa2;fill-opacity:1;fill-rule:evenodd;stroke:none"
             id="path26" /></g><g
           id="g28"
           transform="translate(135.2896,281.7686)"><path
             d="m 0,0 h 15.878 v -7.184 h -4.276 v 3.139 H 7.28 V -7.44 h 3.73 v -4.309 H 7.28 v -4.193 h 4.322 v 3.454 h 4.276 v -7.545 H -0.29 v 4.187 h 1.962 v 11.801 l -1.672,0 z"
             style="fill:#1f4fa2;fill-opacity:1;fill-rule:nonzero;stroke:none"
             id="path30" /></g><g
           id="g32"
           transform="translate(178.3779,281.7686)"><path
             d="m 0,0 h 15.878 v -7.184 h -4.276 v 3.139 H 7.28 V -7.44 h 3.73 v -4.309 H 7.28 v -4.193 h 4.322 v 3.454 h 4.276 v -7.545 H -0.289 v 4.187 h 1.961 v 11.801 l -1.672,0 z"
             style="fill:#1f4fa2;fill-opacity:1;fill-rule:nonzero;stroke:none"
             id="path34" /></g><g
           id="g36"
           transform="translate(161.998,281.7686)"><path
             d="M 0,0 H 9.37 V -4.045 H 7.376 v -11.801 h 2.83 v 3.358 h 4.643 v -7.545 H 0 v 4.187 H 1.929 V -4.045 H 0 Z"
             style="fill:#1f4fa2;fill-opacity:1;fill-rule:nonzero;stroke:none"
             id="path38" /></g><g
           id="g40"
           transform="translate(231.6479,281.7666)"><path
             d="m 0,0 h 15.877 v -7.184 h -4.275 v 3.139 H 7.279 V -7.44 h 3.731 v -4.309 H 7.279 v -4.193 h 4.323 v 3.453 h 4.275 v -7.545 H -0.289 v 4.188 H 1.672 V -4.045 H 0 Z"
             style="fill:#1f4fa2;fill-opacity:1;fill-rule:nonzero;stroke:none"
             id="path42" /></g><g
           id="g44"
           transform="translate(214.9917,281.7666)"><path
             d="M 0,0 H 9.369 V -4.045 H 7.377 v -11.801 h 2.828 v 3.357 h 4.645 v -7.545 H 0 v 4.188 H 1.93 V -4.045 H 0 Z"
             style="fill:#1f4fa2;fill-opacity:1;fill-rule:nonzero;stroke:none"
             id="path46" /></g><g
           id="g48"
           transform="translate(208.249,281.752)"><path
             d="m 0,0 h 4.129 v -7.167 h -4.642 c 0,0 -0.129,3.357 -2.733,3.357 -2.605,0 -3.234,-3.228 -3.234,-6.475 0,-3.248 0.919,-5.705 3.298,-5.705 2.38,0 2.701,3.518 2.701,3.518 h 4.61 c 0,0 0.248,-7.795 -7.375,-7.795 -8.759,0 -8.355,7.835 -8.355,10.085 0,2.251 -0.115,10.63 7.229,10.63 3.151,0 4.373,-1.718 4.373,-1.718 z"
             style="fill:#1f4fa2;fill-opacity:1;fill-rule:nonzero;stroke:none"
             id="path50" /></g><g
           id="g52"
           transform="translate(281.4995,281.752)"><path
             d="m 0,0 h 4.129 l 0.002,-7.167 h -4.645 c 0,0 -0.129,3.357 -2.732,3.357 -2.606,0 -3.234,-3.228 -3.234,-6.475 0,-3.248 0.919,-5.705 3.298,-5.705 2.379,0 2.702,3.518 2.702,3.518 h 4.611 c 0,0 0.248,-7.795 -7.377,-7.795 -8.76,0 -8.356,7.835 -8.356,10.085 0,2.251 -0.113,10.63 7.231,10.63 3.15,0 4.373,-1.718 4.373,-1.718 z"
             style="fill:#1f4fa2;fill-opacity:1;fill-rule:nonzero;stroke:none"
             id="path54" /></g><g
           id="g56"
           transform="translate(186.7837,309.1274)"><path
             d="M 0,0 C 0,13.185 10.688,23.873 23.873,23.873 37.058,23.873 47.745,13.185 47.745,0 47.745,-13.185 37.058,-23.873 23.873,-23.873 10.688,-23.873 0,-13.185 0,0 m 18.684,15.445 h 8.331 v -4.993 c 0,0 -2.194,0.365 -3.145,-0.658 C 22.919,8.77 22.408,8.676 22.408,5.313 v -7.558 c 1.375,-0.608 2.896,-0.945 4.495,-0.945 6.147,0 11.129,4.982 11.129,11.13 0,6.147 -4.982,11.13 -11.129,11.13 -3.255,0 -6.184,-1.398 -8.219,-3.625 M 21.41,-13.351 V 7.332 c 0,1.139 0.892,2.81 2.108,3.342 1.215,0.532 2.583,0.532 2.583,0.532 v 3.171 H 9.806 V 11.13 c 0,0 2.127,0.304 3.114,-0.912 0.988,-1.215 1.596,-2.488 1.596,-3.323 v -12.82 c 0,-0.893 -0.608,-3.172 -1.747,-3.78 -1.14,-0.607 -2.963,-0.531 -2.963,-0.531 v -3.115 z m 12.952,8.49 -3.418,-1.216 c 0,0 -0.531,-1.956 -1.367,-2.944 -0.836,-0.987 -3.476,-1.367 -3.476,-1.367 v -2.963 h 8.261 z"
             style="fill:#1f4fa2;fill-opacity:1;fill-rule:nonzero;stroke:none"
             id="path58" /></g></g></g></g></svg>
