<?xml version="1.0" encoding="UTF-8" standalone="no"?>
<!-- Created with Inkscape (http://www.inkscape.org/) -->

<svg
   version="1.1"
   id="svg2"
   xml:space="preserve"
   width="11338.587"
   height="5669.2935"
   viewBox="0 0 11338.587 5669.2935"
   sodipodi:docname="stokrotka-seeklogo.com.ai"
   xmlns:inkscape="http://www.inkscape.org/namespaces/inkscape"
   xmlns:sodipodi="http://sodipodi.sourceforge.net/DTD/sodipodi-0.dtd"
   xmlns="http://www.w3.org/2000/svg"
   xmlns:svg="http://www.w3.org/2000/svg"><defs
     id="defs6"><clipPath
       clipPathUnits="userSpaceOnUse"
       id="clipPath16"><path
         d="M 0,4251.97 H 8503.94 V 0 H 0 Z"
         id="path14" /></clipPath></defs><sodipodi:namedview
     id="namedview4"
     pagecolor="#ffffff"
     bordercolor="#666666"
     borderopacity="1.0"
     inkscape:pageshadow="2"
     inkscape:pageopacity="0.0"
     inkscape:pagecheckerboard="0" /><g
     id="g8"
     inkscape:groupmode="layer"
     inkscape:label="stokrotka-seeklogo.com"
     transform="matrix(1.3333333,0,0,-1.3333333,0,5669.2933)"><g
       id="g10"><g
         id="g12"
         clip-path="url(#clipPath16)"><g
           id="g18"
           transform="translate(5958.6523,3320.4189)"><path
             d="m 0,0 c 0,3.018 0.281,6.07 -0.055,9.051 -1.187,10.344 -1.941,20.65 -8.015,29.912 -12.215,18.625 -29.414,27.935 -51.278,29.422 h -2594.638 c 0,0 -24.833,0.197 -27,0.197 -0.527,0 -1.106,-0.079 -1.681,-0.197 h -0.161 c -0.02,-0.019 -0.042,-0.031 -0.062,-0.049 -1.233,-0.276 -2.406,-0.712 -2.965,-0.934 -0.236,-0.009 -0.473,-0.016 -0.711,-0.023 -37.211,-1.123 -73.735,-6.059 -109.715,-16.301 -95.891,-27.289 -180.981,-73.889 -254.157,-141.504 -54.183,-50.058 -97.953,-108.08 -129.953,-174.912 -32.562,-68.012 -52.211,-138.848 -50.668,-214.793 v -13.639 -11.091 c 0,-566.452 0,-1132.91 -0.058,-1699.371 0,-4.282 1.047,-8.709 -0.949,-12.87 v -4.019 c 2.867,-9.986 1.695,-20.891 7.476,-30.264 14.985,-24.297 36.59,-34.318 65.047,-34.308 857.34,0.236 1714.68,0.244 2572.012,0.072 53.148,-0.01 105.261,5.494 156.457,20.441 94.332,27.557 178.152,73.719 250.371,140.338 57.074,52.654 102.41,114.11 134.797,184.897 29.332,64.09 46.105,130.767 46.07,201.8 C -0.129,-1158.76 0,-579.381 0,0"
             style="fill:#80b237;fill-opacity:1;fill-rule:evenodd;stroke:none"
             id="path20" /></g><g
           id="g22"
           transform="translate(3275.8242,3388.8037)"><path
             d="m 0,0 c -14.836,-5.406 -30.672,-4.895 -45.961,-7.729 -196.523,-36.386 -345.75,-139.035 -440.93,-316.203 -37.296,-69.427 -55.898,-144.607 -60.679,-223.213 -0.481,-1.48 -1.039,-1.509 -1.668,-0.082 0,179.563 0.051,359.125 -0.196,538.688 -0.015,7.254 1.489,8.748 8.739,8.736 C -360.461,-0.053 -180.234,0 0,0"
             style="fill:#fefefe;fill-opacity:1;fill-rule:evenodd;stroke:none"
             id="path24" /></g><g
           id="g26"
           transform="translate(2728.2969,2817.5068)"><path
             d="m 0,0 c 0.105,-4.016 0.293,-8.035 0.297,-12.051 0.015,-562.924 0.019,-1125.845 -0.086,-1688.769 0,-4.438 1.953,-9.399 -1.922,-13.369 V -0.074 C -1.203,1.383 -0.633,1.408 0,0"
             style="fill:#c0d99b;fill-opacity:1;fill-rule:evenodd;stroke:none"
             id="path28" /></g><g
           id="g30"
           transform="translate(2726.5859,2841.5771)"><path
             d="M 0,0 C 0.547,0.152 1.105,0.178 1.668,0.082 1.664,-4.604 1.66,-9.287 1.66,-13.977 1.199,-15.451 0.645,-15.488 0,-14.084 Z"
             style="fill:#e7f0d8;fill-opacity:1;fill-rule:evenodd;stroke:none"
             id="path32" /></g><g
           id="g34"
           transform="translate(3293.9297,3388.8037)"><path
             d="M 0,0 C -4.023,-2.047 -8.047,-3.814 -12.07,0 Z"
             style="fill:#b4d287;fill-opacity:1;fill-rule:evenodd;stroke:none"
             id="path36" /></g><g
           id="g38"
           transform="translate(2726.5859,2827.4932)"><path
             d="M 0,0 C 0.547,0.131 1.102,0.164 1.66,0.107 1.676,-3.258 1.695,-6.623 1.711,-9.986 1.137,-9.979 0.57,-10.004 0,-10.061 Z"
             style="fill:#cfe2b3;fill-opacity:1;fill-rule:evenodd;stroke:none"
             id="path40" /></g><g
           id="g42"
           transform="translate(5310.2344,1759.7861)"><path
             d="M 0,0 C 1.945,-1.236 2.945,-2.088 4.109,-2.578 32.5,-14.67 49.918,-36.602 59.945,-65.031 c 9.688,-27.442 17.864,-55.414 30.11,-81.922 3.855,-8.332 8.508,-16.02 15.48,-21.988 3.07,-2.627 4.028,-4.118 1,-7.827 -18.582,-22.765 -59.187,-35.119 -86.98,-26.195 -12.778,4.094 -20.614,13.318 -26.106,24.887 -10.953,23.053 -17.273,47.799 -26.066,71.646 -2.774,7.524 -5.574,15.063 -8.774,22.414 -8,18.354 -21.843,26.883 -42.16,25.819 -19.367,-1.014 -19.394,-0.524 -19.394,-19.883 0,-37.879 -0.172,-75.748 0.156,-113.627 0.066,-6.869 -2.195,-9.275 -8.816,-10.053 -28.438,-3.34 -56.805,-3.201 -85.243,0.049 -6.461,0.736 -8.933,2.899 -8.925,9.914 0.207,165.576 0.199,331.152 0.05,496.729 -0.015,8.89 2.832,13.082 12.149,12.615 17.043,-0.875 34.226,1.596 51.148,-1.629 21.774,-4.143 33.285,-16.119 37.426,-37.789 1.91,-9.945 2.055,-19.975 2.055,-30.035 0,-70.049 0.156,-140.108 -0.196,-210.158 -0.039,-8.375 2.129,-10.831 10.512,-10.495 11.559,0.465 18.535,6.262 23.668,15.791 12.523,23.297 25.734,46.237 37.688,69.821 14.3,28.211 36.234,41.791 68.078,39.613 14.015,-0.957 28.144,-0.475 42.207,-0.852 11.742,-0.31 13.574,-3.291 8.285,-13.228 C 70.172,106.365 52.922,74.209 35.828,41.963 27.113,25.533 15.453,11.6 0,0"
             style="fill:#fefefe;fill-opacity:1;fill-rule:evenodd;stroke:none"
             id="path44" /></g><g
           id="g46"
           transform="translate(4102.957,1760.5713)"><path
             d="m 0,0 c 0.461,-0.982 0.527,-1.465 0.758,-1.562 36.125,-15.366 53.871,-45.042 64.414,-81.004 6.676,-22.774 14.805,-45.139 24.961,-66.694 3.48,-7.385 7.5,-14.441 13.863,-19.459 5.348,-4.224 4.067,-6.9 -0.004,-10.912 -20.34,-20.074 -44.722,-28.808 -73.07,-26.523 -18.445,1.472 -30.969,11.32 -38.531,27.963 -10.821,23.839 -17.52,49.152 -26.579,73.621 -1.273,3.445 -2.378,6.965 -3.746,10.371 -12.543,31.279 -26.589,39.179 -60.089,34.816 -7.348,-0.957 -5.215,-5.738 -5.227,-9.504 -0.129,-40.218 -0.398,-80.447 0.145,-120.666 0.128,-9.562 -2.973,-12.461 -12.184,-13.392 -27.145,-2.752 -54.16,-2.637 -81.242,0.367 -6.723,0.746 -9.723,2.752 -9.715,10.396 0.23,165.586 0.219,331.178 0.062,496.762 -0.011,9.201 3.493,12.566 12.547,12.223 14.059,-0.541 28.172,0.22 42.219,-0.483 27.68,-1.384 43.867,-17.011 46.566,-44.494 0.918,-9.324 1.438,-18.728 1.454,-28.094 0.121,-68.716 0.253,-137.431 -0.161,-206.148 -0.058,-9.086 2.485,-11.453 11.215,-10.897 11.133,0.706 17.739,6.575 22.668,15.702 12.719,23.578 25.985,46.859 38.219,70.681 14.059,27.367 35.496,40.727 66.535,38.811 14.703,-0.908 29.488,-0.459 44.231,-0.883 10.816,-0.312 12.488,-3.357 7.414,-12.918 C 69.617,105.85 52.484,73.629 35.305,41.432 26.535,25.01 15.324,10.586 0,0"
             style="fill:#fefefe;fill-opacity:1;fill-rule:evenodd;stroke:none"
             id="path48" /></g><g
           id="g50"
           transform="translate(3798.6719,2338.6396)"><path
             d="m 0,0 c 79.063,-2.717 165.168,-15.697 248.473,-44.668 16.191,-5.637 31.519,-13.242 44.613,-24.617 22.844,-19.856 23.035,-45.752 0.348,-65.723 -19.637,-17.289 -43.727,-26.107 -68.239,-32.885 -82.691,-22.873 -166.754,-37.312 -252.89,-34.873 -61.907,1.752 -122.856,10.077 -180.649,34.088 -19.586,8.137 -37.976,18.344 -52.738,34.145 -19.633,21.006 -19.594,45.303 0.578,66.103 23.961,24.715 55.012,36.446 86.902,46.061 C -119.922,-6.176 -64.652,-0.949 0,0"
             style="fill:#fefefe;fill-opacity:1;fill-rule:evenodd;stroke:none"
             id="path52" /></g><g
           id="g54"
           transform="translate(4884.3242,2829.5811)"><path
             d="m 0,0 c 35.324,-0.041 54.281,-21.895 50.516,-58.213 -3.094,-29.896 -14.457,-57.01 -28.766,-82.939 -39.598,-71.758 -93.438,-131.469 -157.258,-182.233 -48.316,-38.426 -99.023,-73.414 -155.074,-99.945 -12.73,-6.025 -25.926,-10.867 -39.859,-13.418 -42.371,-7.756 -65.293,16.225 -55.911,58.437 5.141,23.139 14.93,44.424 26.817,64.668 51.933,88.42 112.242,169.998 193.598,234.092 38.597,30.408 79.308,57.252 126.519,72.641 C -26.648,-2.746 -13.547,0.016 0,0"
             style="fill:#fefefe;fill-opacity:1;fill-rule:evenodd;stroke:none"
             id="path56" /></g><g
           id="g58"
           transform="translate(4890.6445,2338.6396)"><path
             d="m 0,0 c 67.027,-1.342 128.156,-7.498 187.047,-28.178 22.234,-7.808 43.453,-17.648 61.691,-32.933 30.192,-25.311 30.063,-56.537 -0.343,-81.576 -23.215,-19.116 -50.493,-30.2 -78.965,-38.344 -75.035,-21.481 -151.496,-26.401 -228.969,-18.723 -57.805,5.731 -114.691,16.299 -170.332,32.975 -24.406,7.318 -48.488,15.888 -68.121,33.154 -16.012,14.088 -20.586,31.141 -13.211,47.637 4.379,9.806 11.82,16.945 20.351,23.093 17.657,12.721 37.754,20.36 58.321,26.393 63.523,18.631 128.492,29.602 194.472,34.555 C -23.699,-0.871 -9.285,-0.467 0,0"
             style="fill:#fefefe;fill-opacity:1;fill-rule:evenodd;stroke:none"
             id="path60" /></g><g
           id="g62"
           transform="translate(3749.7891,2778.335)"><path
             d="m 0,0 c 0.164,37.615 24.258,56.625 63.902,50.436 33.375,-5.207 63.309,-19.172 91.848,-36.331 80.637,-48.472 145.199,-113.896 198.863,-190.521 28.055,-40.063 55.676,-80.471 74.051,-126.215 6.516,-16.226 11.445,-32.951 9.195,-50.83 -2.484,-19.68 -16.32,-32.703 -36.07,-34.16 -21.113,-1.561 -40.805,4.48 -58.93,13.961 C 219.531,-309.156 112.043,-226.367 38.141,-105.652 21.465,-78.416 7.73,-49.766 2.016,-17.945 0.953,-12.035 0.648,-5.984 0,0"
             style="fill:#fefefe;fill-opacity:1;fill-rule:evenodd;stroke:none"
             id="path64" /></g><g
           id="g66"
           transform="translate(4444.0078,2777.8604)"><path
             d="m 0,0 c -2.629,-76.973 -15.48,-164.111 -45.469,-248.234 -5.312,-14.907 -12.531,-28.914 -22.804,-41.096 -20.157,-23.912 -46.75,-24.182 -67.11,-0.49 -17.023,19.806 -25.777,43.927 -32.523,68.463 -22.84,83.07 -37.121,167.474 -34.465,253.996 1.894,61.601 10.316,122.164 34.309,179.607 8.187,19.59 18.539,37.899 34.433,52.551 20.066,18.502 43.766,18.793 63.93,0.283 21.172,-19.418 32.664,-44.746 41.898,-71.139 C -7.223,135.049 -0.828,73.896 0,0"
             style="fill:#fefefe;fill-opacity:1;fill-rule:evenodd;stroke:none"
             id="path68" /></g><g
           id="g70"
           transform="translate(5720.2266,1729.9463)"><path
             d="m 0,0 c 0,-24.805 -0.039,-49.617 0.016,-74.43 0.043,-16.904 3.136,-32.81 16.593,-44.656 3.383,-2.978 2.426,-6.016 1.336,-9.053 -5.933,-16.619 -14.988,-31.345 -27.226,-44.099 -2.489,-2.604 -5.157,-3.832 -8.875,-3.473 -24.567,2.35 -46.547,10.479 -62.535,30.068 -5.043,6.174 -7.59,5.707 -13.067,0.926 -29.617,-25.803 -63.918,-38.025 -103.523,-35.709 -48.364,2.817 -84.219,30.707 -95.11,77.951 -11.671,50.657 2.075,109.516 65.934,136.268 23.297,9.76 47.594,13.475 72.598,13.213 13.734,-0.147 27.472,-0.842 41.175,-1.768 6.036,-0.41 8.778,1.188 8.032,7.598 -0.469,3.978 -0.059,8.047 -0.352,12.059 -1.875,26.433 -14.754,39.498 -41.234,41.234 -27.942,1.824 -54.278,-6.854 -80.938,-13.182 -5.527,-1.316 -10.914,-3.199 -16.383,-4.771 -15.316,-4.412 -15.437,-4.461 -23.222,9.863 -8.942,16.44 -13.098,34.27 -15.145,52.746 -0.523,4.707 0.539,7.442 5.27,9.111 57.746,20.35 116.851,33.278 178.316,26.163 C -39.277,179.223 -2.012,136.908 -0.344,77.443 0.387,51.648 -0.219,25.82 -0.219,0 Z"
             style="fill:#fefefe;fill-opacity:1;fill-rule:evenodd;stroke:none"
             id="path72" /></g><g
           id="g74"
           transform="translate(3539.1445,1731.208)"><path
             d="m 0,0 c -0.141,35.545 3.934,66.922 16.457,96.746 24.023,57.205 67.731,87.25 129.02,91.891 30.753,2.334 60.953,-1.114 89.183,-14.703 38.192,-18.387 62.223,-49.379 74.895,-88.87 16.371,-51.025 17.023,-102.943 2.39,-154.476 -20.965,-73.824 -78.23,-114.02 -154.902,-112.717 C 72.32,-180.697 19.133,-126.994 4.441,-48.496 1.23,-31.338 -0.266,-14.008 0,0"
             style="fill:#fefefe;fill-opacity:1;fill-rule:evenodd;stroke:none"
             id="path76" /></g><g
           id="g78"
           transform="translate(4802.5,1734.5068)"><path
             d="m 0,0 c -0.742,-29.937 -3.648,-59.539 -14.953,-87.635 -26.485,-65.801 -78.649,-99.717 -149.688,-97.556 -80.847,2.464 -135.125,47.587 -151.398,127.232 -10.512,51.492 -9.465,102.746 10.871,151.994 23.707,57.371 68.063,87.006 129.328,91.311 37.149,2.619 72.973,-2.799 104.801,-23.969 C -34.258,136.9 -15.438,100.781 -6.023,58.885 -1.668,39.531 -0.504,19.787 0,0"
             style="fill:#fefefe;fill-opacity:1;fill-rule:evenodd;stroke:none"
             id="path80" /></g><g
           id="g82"
           transform="translate(3101.4609,1549.3154)"><path
             d="m 0,0 c -47.43,-0.375 -88.816,10.176 -127.977,30.389 -6.621,3.422 -8.578,7.341 -7.269,14.154 3.715,19.344 10.863,37.174 22.219,53.357 4.101,5.846 7.769,6.993 14.644,3.522 30.82,-15.539 62.879,-26.754 98.223,-24.512 7.449,0.477 14.625,1.924 21.262,5.404 15.742,8.26 19.019,25.165 7.488,38.788 -5.77,6.818 -13.317,11.197 -21.539,14.326 -16.266,6.187 -32.641,12.082 -48.93,18.213 -10.359,3.888 -20.32,8.662 -29.848,14.31 -38.488,22.848 -57.757,56.043 -53.277,101.248 4.481,45.205 29.582,75.061 71.219,91.367 27.765,10.871 56.824,12.198 86.148,9.219 33.168,-3.373 65.242,-11.248 96.223,-23.709 6.305,-2.537 8.633,-5.892 7.836,-12.762 -2.375,-20.375 -9.02,-39 -20.781,-55.847 -4.703,-6.737 -9.516,-8.342 -17.684,-4.682 -26.699,11.951 -54.273,21.227 -83.961,22.104 -7.402,0.22 -14.785,0.097 -21.695,-3.104 -16.309,-7.547 -19.336,-26.785 -6.008,-38.82 7.086,-6.408 15.793,-9.912 24.617,-13.244 23.145,-8.752 47.07,-15.555 68.93,-27.539 28.961,-15.866 51.719,-37.166 60.312,-70.346 C 156.324,79.424 120.848,23.119 55.43,6.672 36.113,1.818 16.52,-0.162 0,0"
             style="fill:#fefefe;fill-opacity:1;fill-rule:evenodd;stroke:none"
             id="path84" /></g><g
           id="g86"
           transform="translate(4875.5078,1728.2686)"><path
             d="m 0,0 c 0,37.682 -0.164,68.855 0.141,100.029 0.07,6.549 -1.703,8.784 -8.426,8.424 -12.703,-0.68 -25.477,-0.221 -38.188,-0.851 -6.183,-0.303 -9.113,1.628 -10.07,7.867 -3.004,19.713 -3.055,39.351 0,59.054 0.859,5.518 3.035,7.975 9.152,7.704 13.047,-0.581 26.157,0.017 39.203,-0.606 6.813,-0.326 8.391,2.104 8.336,8.506 -0.183,18.42 -0.871,36.863 1.481,55.242 3.398,26.572 16.348,39.016 43.117,41.635 15.406,1.506 30.813,0.654 46.219,1.016 8.047,0.179 11.414,-3.456 11.355,-11.543 -0.203,-28.497 0.188,-56.995 -0.254,-85.483 -0.121,-7.842 1.883,-10.265 9.989,-9.953 22.101,0.859 44.238,0.523 66.347,1.17 6.282,0.187 8.555,-1.775 9.645,-7.957 3.414,-19.385 3.316,-38.582 0.125,-57.992 -1.223,-7.367 -4.34,-8.899 -11.199,-8.619 -22.106,0.867 -44.243,0.875 -66.344,1.677 -6.516,0.239 -8.563,-1.588 -8.531,-8.285 0.273,-53.637 0.019,-107.264 0.261,-160.9 0.102,-22.08 10.184,-31.78 32.157,-32.026 10.726,-0.115 21.457,-0.261 32.171,0.075 5.153,0.162 7.665,-1.385 9.219,-6.582 5.828,-19.567 7.91,-39.336 5.074,-59.606 -0.554,-3.922 -1.285,-7.344 -6.054,-7.834 -34.973,-3.627 -69.977,-9.357 -105.164,-4.953 -41.028,5.125 -63.801,29.504 -68.094,70.787 C -2.016,-64.557 1.113,-28.988 0,0"
             style="fill:#fefefe;fill-opacity:1;fill-rule:evenodd;stroke:none"
             id="path88" /></g><g
           id="g90"
           transform="translate(3333.8164,1732.165)"><path
             d="m 0,0 c 0,31.838 -0.191,63.682 0.152,95.518 0.075,6.984 -1.812,9.423 -8.988,9.046 -13.043,-0.705 -26.141,-0.328 -39.195,-0.826 -5.446,-0.213 -7.617,1.694 -8.52,7.096 -3.39,20.369 -3.39,40.621 0.067,60.988 0.863,5.102 3.07,6.59 7.953,6.459 13.398,-0.351 26.824,0.041 40.211,-0.564 6.734,-0.295 8.422,2.013 8.476,8.498 0.16,19.728 -1.765,39.572 1.903,59.17 4.535,24.256 16.898,35.201 41.351,37.633 15.727,1.564 31.477,0.728 47.211,1.121 8.277,0.205 11.254,-3.807 11.207,-11.69 -0.16,-28.152 0.332,-56.314 -0.281,-84.459 -0.199,-9.234 2.836,-11.189 11.457,-10.83 21.094,0.867 42.23,0.492 63.328,1.113 7.102,0.206 10.508,-1.046 11.668,-9.257 2.641,-18.772 2.59,-37.248 -0.059,-56.012 -1.156,-8.211 -4.597,-9.479 -11.718,-9.209 -21.766,0.803 -43.563,0.803 -65.332,1.621 -6.832,0.254 -9.297,-1.506 -9.262,-8.76 0.277,-52.277 -0.07,-104.572 0.254,-156.849 0.168,-27.17 9.308,-35.571 36.82,-35.62 9.047,-0.015 18.109,-0.31 27.141,0.108 5.582,0.262 8.16,-1.441 9.914,-7.057 5.91,-18.92 6.894,-38.14 5.285,-57.664 -0.445,-5.404 -2.09,-9.031 -8.836,-9.742 -27.664,-2.914 -55.309,-5.707 -83.164,-5.969 -9.77,-0.09 -19.449,0.657 -28.957,2.735 -36.914,8.088 -58.32,35.724 -59.578,78.892 -0.922,31.477 -0.18,63.002 -0.18,94.51 z"
             style="fill:#fefefe;fill-opacity:1;fill-rule:evenodd;stroke:none"
             id="path92" /></g><g
           id="g94"
           transform="translate(4343.0703,2367.8564)"><path
             d="m 0,0 c 72.777,-0.564 130.637,-59.277 130.113,-132.037 -0.515,-72.065 -59.539,-130.539 -131.254,-130.039 -72.3,0.508 -131.054,60.055 -130.421,132.176 C -130.937,-58.023 -71.605,0.557 0,0"
             style="fill:#fedc00;fill-opacity:1;fill-rule:evenodd;stroke:none"
             id="path96" /></g><g
           id="g98"
           transform="translate(4345.8203,1854.1748)"><path
             d="m 0,0 c 4.477,7.482 8.547,15.119 13.395,22.217 15.929,23.34 38.105,36.135 66.375,37.902 15.765,0.99 31.418,-0.113 46.937,-3.43 5.043,-1.08 7.566,-2.652 7.141,-8.423 -2.196,-29.7 -9.153,-58.034 -22.285,-84.901 -2.883,-5.894 -6.075,-5.345 -11.067,-4.06 -23.152,5.976 -45.812,7.056 -66.055,-8.784 -14.222,-11.125 -22.89,-23.789 -22.464,-43.943 1.336,-63.305 0.261,-126.66 0.73,-189.996 0.07,-9.709 -3.211,-12.264 -12.23,-13.164 -27.805,-2.783 -55.485,-2.496 -83.243,0.377 -7.539,0.785 -9.707,3.699 -9.675,11.305 0.308,72.046 0.156,144.095 0.203,216.142 0.008,15.481 -1.133,30.781 -5.895,45.631 -2.898,9.047 -6.703,17.895 -13.863,24.092 -6.016,5.215 -5.961,10.012 -3.359,16.545 5.496,13.851 12.929,26.4 22.796,37.576 3.813,4.312 7.594,6.246 13.907,5.238 C -45.234,54.986 -20.359,38.074 -4.84,7.793 -3.77,5.713 -2.773,3.594 -1.66,1.531 -1.391,1.031 -0.801,0.711 0,0"
             style="fill:#fefefe;fill-opacity:1;fill-rule:evenodd;stroke:none"
             id="path100" /></g><g
           id="g102"
           transform="translate(5615.5078,1679.0615)"><path
             d="m 0,0 c 0.008,-4.02 -0.68,-8.178 0.125,-12.035 3.02,-14.488 -4.816,-22.119 -16.301,-28.34 -14.742,-7.982 -29.847,-13.574 -46.949,-10.512 -8.266,1.483 -15.004,5.518 -19.793,12.541 -18.207,26.721 -0.164,65.803 31.859,67.989 15,1.023 30.118,0.015 45.18,0.253 5.227,0.083 6.051,-2.457 5.938,-6.794 C -0.156,15.406 -0.008,7.695 0,0"
             style="fill:#82b338;fill-opacity:1;fill-rule:evenodd;stroke:none"
             id="path104" /></g><g
           id="g106"
           transform="translate(3753.1016,1734.4502)"><path
             d="m 0,0 c 0.082,-24.838 -1.215,-49.586 -8.918,-73.416 -9.227,-28.529 -35.027,-40.629 -63.168,-29.986 -13.16,4.986 -20.961,14.972 -25.211,28.095 -7.414,22.897 -8.785,46.637 -9.187,70.395 -0.434,25.818 0.894,51.598 7.804,76.656 7.227,26.195 23.379,37.338 50.45,35.774 18.882,-1.08 31.082,-11.067 37.496,-28.389 C -1.285,53.578 -0.074,26.85 0,0"
             style="fill:#82b338;fill-opacity:1;fill-rule:evenodd;stroke:none"
             id="path108" /></g><g
           id="g110"
           transform="translate(4694.5391,1726.7217)"><path
             d="m 0,0 c 0.125,-16.365 -1.34,-40.391 -8.398,-63.689 -7.598,-25.082 -21.219,-35.227 -45.965,-34.922 -23.848,0.293 -38.68,11.631 -44.59,36.738 -11.051,46.99 -11.07,94.307 0.316,141.215 6.418,26.433 23.145,37.443 50.242,35.914 19.352,-1.09 31.532,-11.502 37.887,-29.283 C -1.457,60.686 -0.031,34.334 0,0"
             style="fill:#82b338;fill-opacity:1;fill-rule:evenodd;stroke:none"
             id="path112" /></g></g></g></g></svg>
