<?xml version="1.0" encoding="utf-8"?>
<!-- Generator: Adobe Illustrator 16.0.0, SVG Export Plug-In . SVG Version: 6.00 Build 0)  -->
<!DOCTYPE svg PUBLIC "-//W3C//DTD SVG 1.1//EN" "http://www.w3.org/Graphics/SVG/1.1/DTD/svg11.dtd">
<svg version="1.1" id="Слой_1" xmlns="http://www.w3.org/2000/svg" xmlns:xlink="http://www.w3.org/1999/xlink" x="0px" y="0px"
	 width="512px" height="512px" viewBox="0 0 512 512" enable-background="new 0 0 512 512" xml:space="preserve">
<g id="_x32_2_shop_x2C__store_x2C__market_x2C__purchase_x2C__building_x2C__architecture">
	<g>
		<g>
			<rect x="35.995" y="220.005" fill="#E6E9ED" width="439.934" height="247.964"/>
		</g>
	</g>
	<g>
		<g>
			<rect x="35.995" y="250.665" fill="#FFFFFF" width="7.999" height="217.304"/>
		</g>
	</g>
	<g opacity="0.2">
		<g>
			<rect x="467.931" y="250.665" width="7.998" height="217.304"/>
		</g>
	</g>
	<g>
		<g>
			<polygon fill="#656D78" points="195.971,499.965 59.991,499.965 75.989,483.967 179.974,483.967 			"/>
		</g>
	</g>
	<g>
		<g>
			<rect x="27.996" y="467.969" fill="#E6E9ED" width="455.933" height="15.998"/>
		</g>
	</g>
	<g>
		<g>
			<path fill="#FFCE54" d="M387.942,427.975c4.398,0,7.998,3.602,7.998,7.999s-3.6,7.999-7.998,7.999s-7.998-3.602-7.998-7.999
				S383.544,427.975,387.942,427.975z"/>
		</g>
	</g>
	<g>
		<g>
			<path fill="#FFCE54" d="M323.952,427.975c4.398,0,7.998,3.602,7.998,7.999s-3.6,7.999-7.998,7.999s-8-3.602-8-7.999
				S319.554,427.975,323.952,427.975z"/>
		</g>
	</g>
	<g>
		<g>
			<rect x="219.968" y="299.994" fill="#5D9CEC" width="207.968" height="111.983"/>
		</g>
	</g>
	<g>
		<g>
			<path fill="#FFCE54" d="M259.962,427.975c4.396,0,7.998,3.602,7.998,7.999s-3.602,7.999-7.998,7.999c-4.398,0-8-3.602-8-7.999
				S255.564,427.975,259.962,427.975z"/>
		</g>
	</g>
	<g>
		<g>
			<path fill="#DA4453" d="M507.925,246.563h0.078c-2.961,3.359-7.279,5.438-12.076,5.438c-8.803,0-15.998-7.202-15.998-15.998
				c0,8.796-7.123,15.998-15.998,15.998c-8.803,0-15.996-7.202-15.996-15.998c0,8.796-7.125,15.998-15.998,15.998
				c-8.805,0-15.998-7.202-15.998-15.998c0,8.796-7.123,15.998-15.998,15.998c-8.803,0-15.998-7.202-15.998-15.998
				c0,8.796-7.123,15.998-15.996,15.998c-8.805,0-15.998-7.202-15.998-15.998c0,8.796-7.125,15.998-15.998,15.998
				c-8.803,0-15.998-7.202-15.998-15.998c0,8.796-7.123,15.998-15.998,15.998c-8.803,0-15.996-7.202-15.996-15.998
				c0,8.796-7.125,15.998-15.998,15.998c-8.801,0-15.998-7.202-15.998-15.998c0,8.796-7.12,15.998-15.998,15.998
				c-8.799,0-15.998-7.202-15.998-15.998c0,8.796-7.119,15.998-15.996,15.998c-8.801,0-15.998-7.202-15.998-15.998
				c0,8.796-7.121,15.998-15.998,15.998c-8.799,0-15.998-7.202-15.998-15.998c0,8.796-7.12,15.998-15.998,15.998
				c-8.799,0-15.997-7.202-15.997-15.998c0,8.796-7.12,15.998-15.998,15.998c-8.8,0-15.998-7.202-15.998-15.998
				c0,8.796-7.12,15.998-15.998,15.998c-8.8,0-15.998-7.202-15.998-15.998c0,8.796-7.12,15.998-15.998,15.998
				c-1.121,0-2.16-0.078-3.199-0.32c-7.28-1.523-12.799-7.999-12.799-15.678c0,8.796-7.12,15.998-15.998,15.998
				c-4.8,0-9.038-2.078-11.999-5.438v-26.559l32.476-39.994h439.454h0.477l31.52,39.994V246.563z"/>
		</g>
	</g>
	<g>
		<g>
			<polygon fill="#E6E9ED" points="475.929,172.012 475.929,180.011 36.475,180.011 35.995,172.012 35.995,156.015 255.962,156.015 
				475.929,156.015 			"/>
		</g>
	</g>
	<g>
		<g>
			<path fill="#FFCE54" d="M255.962,12.036c35.353,0,63.99,28.636,63.99,63.991c0,35.354-28.637,63.99-63.99,63.99
				c-35.354,0-63.99-28.636-63.99-63.99C191.972,40.672,220.609,12.036,255.962,12.036z M283.958,108.021l-8-39.994h-39.993
				l-7.999,39.994H283.958z"/>
		</g>
	</g>
	<g opacity="0.5">
		<g>
			<g>
				<path fill="#FFFFFF" d="M199.97,76.026c0-34.003,26.512-61.718,59.992-63.788c-1.328-0.086-2.648-0.203-4-0.203
					c-35.354,0-63.99,28.636-63.99,63.991c0,35.354,28.637,63.99,63.99,63.99c1.351,0,2.671-0.117,4-0.203
					C226.482,137.744,199.97,110.029,199.97,76.026z"/>
			</g>
		</g>
	</g>
	<g opacity="0.2">
		<g>
			<g>
				<path d="M311.993,76.026c0-34.003-26.512-61.718-59.992-63.788c1.328-0.086,2.648-0.203,4-0.203
					c35.353,0,63.99,28.636,63.99,63.991c0,35.354-28.637,63.99-63.99,63.99c-1.352,0-2.672-0.117-4-0.203
					C285.481,137.744,311.993,110.029,311.993,76.026z"/>
			</g>
		</g>
	</g>
	<g>
		<g>
			<polygon fill="#ED5565" points="275.958,68.027 283.958,108.021 227.966,108.021 235.965,68.027 			"/>
		</g>
	</g>
	<g opacity="0.3">
		<g>
			<polygon fill="#FFFFFF" points="235.965,68.027 227.966,108.021 235.965,108.021 243.964,68.027 			"/>
		</g>
	</g>
	<g opacity="0.2">
		<g>
			<polygon points="275.958,68.027 283.958,108.021 275.958,108.021 267.96,68.027 			"/>
		</g>
	</g>
	<g>
		<g>
			<rect x="83.987" y="299.994" fill="#FFCE54" width="87.987" height="15.997"/>
		</g>
	</g>
	<g>
		<g>
			<path fill="#ED5565" d="M15.998,252.001c8.877,0,15.998-7.202,15.998-15.998c0,7.679,5.519,14.154,12.799,15.678
				c1.039,0.242,2.078,0.32,3.199,0.32c8.877,0,15.998-7.202,15.998-15.998c0,8.796,7.198,15.998,15.998,15.998
				c8.877,0,15.998-7.202,15.998-15.998c0,8.796,7.198,15.998,15.998,15.998c8.878,0,15.998-7.202,15.998-15.998
				c0,8.796,7.198,15.998,15.997,15.998c8.878,0,15.998-7.202,15.998-15.998c0,8.796,7.198,15.998,15.998,15.998
				c8.877,0,15.998-7.202,15.998-15.998c0,8.796,7.197,15.998,15.998,15.998c8.877,0,15.996-7.202,15.996-15.998
				c0,8.796,7.199,15.998,15.998,15.998c8.878,0,15.998-7.202,15.998-15.998c0,8.796,7.197,15.998,15.998,15.998
				c8.873,0,15.998-7.202,15.998-15.998c0,8.796,7.193,15.998,15.996,15.998c8.875,0,15.998-7.202,15.998-15.998
				c0,8.796,7.195,15.998,15.998,15.998c8.873,0,15.998-7.202,15.998-15.998c0,8.796,7.193,15.998,15.998,15.998
				c8.873,0,15.996-7.202,15.996-15.998c0,8.796,7.195,15.998,15.998,15.998c8.875,0,15.998-7.202,15.998-15.998
				c0,8.796,7.193,15.998,15.998,15.998c8.873,0,15.998-7.202,15.998-15.998c0,8.796,7.193,15.998,15.996,15.998
				c8.875,0,15.998-7.202,15.998-15.998c0,8.796,7.195,15.998,15.998,15.998c4.797,0,9.115-2.078,12.076-5.438h-0.078v-26.559H3.999
				v26.559C6.96,249.923,11.197,252.001,15.998,252.001z"/>
		</g>
	</g>
	<g>
		<g>
			<rect x="219.968" y="459.971" fill="#A0D468" width="207.968" height="23.996"/>
		</g>
	</g>
	<g>
		<g>
			<polygon fill="#5D9CEC" points="171.974,467.969 171.974,483.967 83.987,483.967 83.987,467.969 83.987,331.988 171.974,331.988 
							"/>
		</g>
	</g>
	<g opacity="0.3">
		<g>
			<polygon fill="#FFFFFF" points="99.427,483.967 115.987,483.967 156.707,331.988 140.147,331.988 			"/>
		</g>
	</g>
	<g opacity="0.3">
		<g>
			<polygon fill="#FFFFFF" points="288.94,411.978 313.501,411.978 343.511,299.994 318.944,299.994 			"/>
		</g>
	</g>
	<g opacity="0.3">
		<g>
			<polygon fill="#FFFFFF" points="321.78,411.978 351.792,299.994 347.644,299.994 317.64,411.978 			"/>
		</g>
	</g>
	<g>
		<g>
			<rect x="35.995" y="156.015" fill="#FFFFFF" width="7.999" height="23.996"/>
		</g>
	</g>
	<g opacity="0.2">
		<g>
			<rect x="467.931" y="156.015" width="7.998" height="23.996"/>
		</g>
	</g>
	<g opacity="0.2">
		<g>
			<rect x="475.929" y="467.969" width="8" height="15.998"/>
		</g>
	</g>
	<g opacity="0.2">
		<g>
			<rect x="419.938" y="459.971" width="7.998" height="23.996"/>
		</g>
	</g>
	<g>
		<g>
			<rect x="27.996" y="467.969" fill="#FFFFFF" width="7.999" height="15.998"/>
		</g>
	</g>
	<g opacity="0.5">
		<g>
			<rect x="219.968" y="459.971" fill="#FFFFFF" width="7.998" height="23.996"/>
		</g>
	</g>
	<g opacity="0.5">
		<g>
			<rect x="83.987" y="299.994" fill="#FFFFFF" width="7.999" height="15.997"/>
		</g>
	</g>
	<g opacity="0.2">
		<g>
			<rect x="163.976" y="299.994" width="7.999" height="15.997"/>
		</g>
	</g>
	<g opacity="0.3">
		<g>
			<g>
				<path fill="#FFFFFF" d="M19.997,246.563v-26.559l32.476-39.994H36.475L3.999,220.005v26.559
					c2.961,3.359,7.198,5.438,11.999,5.438c2.945,0,5.659-0.852,8.022-2.227C22.528,248.899,21.145,247.868,19.997,246.563z"/>
			</g>
		</g>
	</g>
	<g opacity="0.2">
		<g>
			<g>
				<path d="M492.169,246.563v-26.559l-32.479-39.994h15.998l32.479,39.994v26.559c-2.961,3.359-7.201,5.438-11.998,5.438
					c-2.945,0-5.664-0.852-8.021-2.227C489.638,248.899,491.021,247.868,492.169,246.563z"/>
			</g>
		</g>
	</g>
	<g>
		<g>
			<g>
				<path fill="#3A3847" d="M35.995,176.012c-2.21,0-4-1.789-4-4v-15.998c0-2.211,1.789-4,4-4s4,1.789,4,4v15.998
					C39.994,174.223,38.205,176.012,35.995,176.012z"/>
			</g>
		</g>
		<g>
			<g>
				<path fill="#3A3847" d="M475.929,176.012c-2.209,0-3.998-1.789-3.998-4v-15.998c0-2.211,1.789-4,3.998-4c2.211,0,4,1.789,4,4
					v15.998C479.929,174.223,478.14,176.012,475.929,176.012z"/>
			</g>
		</g>
		<g>
			<g>
				<path fill="#3A3847" d="M475.929,160.014H35.995c-2.21,0-4-1.789-4-3.999c0-2.211,1.789-4,4-4h439.934c2.211,0,4,1.789,4,4
					C479.929,158.225,478.14,160.014,475.929,160.014z"/>
			</g>
		</g>
		<g>
			<g>
				<path fill="#3A3847" d="M35.995,471.969c-2.21,0-4-1.789-4-4V257.359c0-2.211,1.789-3.999,4-3.999s4,1.788,4,3.999v210.609
					C39.994,470.18,38.205,471.969,35.995,471.969z"/>
			</g>
		</g>
		<g>
			<g>
				<path fill="#3A3847" d="M475.929,471.969c-2.209,0-3.998-1.789-3.998-4V257.359c0-2.211,1.789-3.999,3.998-3.999
					c2.211,0,4,1.788,4,3.999v210.609C479.929,470.18,478.14,471.969,475.929,471.969z"/>
			</g>
		</g>
		<g>
			<g>
				<path fill="#3A3847" d="M507.925,224.005c-1.18,0-2.352-0.523-3.141-1.523l-30.314-38.471H38.381L7.104,222.528
					c-1.391,1.703-3.91,1.992-5.625,0.578c-1.718-1.391-1.976-3.906-0.585-5.624l32.476-39.994c0.762-0.93,1.902-1.477,3.104-1.477
					h439.454c1.227,0,2.859,0.563,3.617,1.523l31.52,39.994c1.367,1.734,1.07,4.249-0.664,5.616
					C509.667,223.724,508.792,224.005,507.925,224.005z"/>
			</g>
		</g>
		<g>
			<g>
				<path fill="#3A3847" d="M15.998,256c-5.812,0-11.139-2.414-14.998-6.788c-1.46-1.664-1.3-4.187,0.355-5.647
					c1.66-1.461,4.187-1.297,5.644,0.352c2.32,2.632,5.515,4.085,8.999,4.085c6.616,0,11.998-5.382,11.998-11.998
					c0-2.211,1.789-4,4-4s4,1.789,4,4C35.995,247.032,27.023,256,15.998,256z"/>
			</g>
		</g>
		<g>
			<g>
				<path fill="#3A3847" d="M47.993,256c-1.558,0-2.863-0.133-4.105-0.422c-9.17-1.922-15.892-10.163-15.892-19.575
					c0-2.211,1.789-4,4-4s4,1.789,4,4c0,5.647,4.046,10.6,9.62,11.764c0.727,0.164,1.434,0.234,2.378,0.234
					c6.616,0,11.999-5.382,11.999-11.998c0-2.211,1.789-4,3.999-4c2.211,0,4,1.789,4,4C67.99,247.032,59.019,256,47.993,256z"/>
			</g>
		</g>
		<g>
			<g>
				<path fill="#3A3847" d="M79.988,256c-11.026,0-19.997-8.968-19.997-19.997c0-2.211,1.789-4,3.999-4c2.211,0,4,1.789,4,4
					c0,6.616,5.382,11.998,11.999,11.998s11.998-5.382,11.998-11.998c0-2.211,1.789-4,4-4s4,1.789,4,4
					C99.985,247.032,91.014,256,79.988,256z"/>
			</g>
		</g>
		<g>
			<g>
				<path fill="#3A3847" d="M111.983,256c-11.025,0-19.997-8.968-19.997-19.997c0-2.211,1.789-4,4-4s4,1.789,4,4
					c0,6.616,5.382,11.998,11.998,11.998s11.998-5.382,11.998-11.998c0-2.211,1.789-4,4-4c2.21,0,3.999,1.789,3.999,4
					C131.98,247.032,123.009,256,111.983,256z"/>
			</g>
		</g>
		<g>
			<g>
				<path fill="#3A3847" d="M143.979,256c-11.025,0-19.997-8.968-19.997-19.997c0-2.211,1.789-4,4-4c2.21,0,3.999,1.789,3.999,4
					c0,6.616,5.382,11.998,11.998,11.998s11.999-5.382,11.999-11.998c0-2.211,1.789-4,4-4c2.21,0,3.999,1.789,3.999,4
					C163.976,247.032,155.004,256,143.979,256z"/>
			</g>
		</g>
		<g>
			<g>
				<path fill="#3A3847" d="M175.974,256c-11.026,0-19.997-8.968-19.997-19.997c0-2.211,1.789-4,4-4c2.21,0,3.999,1.789,3.999,4
					c0,6.616,5.382,11.998,11.999,11.998s11.998-5.382,11.998-11.998c0-2.211,1.789-4,4-4s3.999,1.789,3.999,4
					C195.971,247.032,187,256,175.974,256z"/>
			</g>
		</g>
		<g>
			<g>
				<path fill="#3A3847" d="M207.97,256c-11.027,0-19.998-8.968-19.998-19.997c0-2.211,1.789-4,4-4s3.999,1.789,3.999,4
					c0,6.616,5.382,11.998,11.999,11.998c6.615,0,11.998-5.382,11.998-11.998c0-2.211,1.788-4,3.998-4c2.211,0,4,1.789,4,4
					C227.966,247.032,218.996,256,207.97,256z"/>
			</g>
		</g>
		<g>
			<g>
				<path fill="#3A3847" d="M239.964,256c-11.025,0-19.996-8.968-19.996-19.997c0-2.211,1.788-4,3.998-4c2.211,0,4,1.789,4,4
					c0,6.616,5.383,11.998,11.998,11.998c6.617,0,11.998-5.382,11.998-11.998c0-2.211,1.789-4,4-4c2.21,0,4,1.789,4,4
					C259.962,247.032,250.99,256,239.964,256z"/>
			</g>
		</g>
		<g>
			<g>
				<path fill="#3A3847" d="M271.96,256c-11.025,0-19.998-8.968-19.998-19.997c0-2.211,1.789-4,4-4c2.21,0,4,1.789,4,4
					c0,6.616,5.381,11.998,11.998,11.998c6.615,0,11.998-5.382,11.998-11.998c0-2.211,1.789-4,4-4c2.209,0,3.998,1.789,3.998,4
					C291.956,247.032,282.981,256,271.96,256z"/>
			</g>
		</g>
		<g>
			<g>
				<path fill="#3A3847" d="M303.954,256c-11.029,0-19.996-8.968-19.996-19.997c0-2.211,1.789-4,4-4c2.209,0,3.998,1.789,3.998,4
					c0,6.616,5.383,11.998,11.998,11.998c6.617,0,11.998-5.382,11.998-11.998c0-2.211,1.789-4,4-4s4,1.789,4,4
					C323.952,247.032,314.978,256,303.954,256z"/>
			</g>
		</g>
		<g>
			<g>
				<path fill="#3A3847" d="M335.95,256c-11.029,0-19.998-8.968-19.998-19.997c0-2.211,1.789-4,4-4s4,1.789,4,4
					c0,6.616,5.381,11.998,11.998,11.998c6.615,0,11.998-5.382,11.998-11.998c0-2.211,1.789-4,4-4s3.998,1.789,3.998,4
					C355.946,247.032,346.972,256,335.95,256z"/>
			</g>
		</g>
		<g>
			<g>
				<path fill="#3A3847" d="M367.946,256c-11.031,0-19.998-8.968-19.998-19.997c0-2.211,1.789-4,4-4s3.998,1.789,3.998,4
					c0,6.616,5.383,11.998,12,11.998c6.615,0,11.998-5.382,11.998-11.998c0-2.211,1.789-4,3.998-4c2.211,0,4,1.789,4,4
					C387.942,247.032,378.968,256,367.946,256z"/>
			</g>
		</g>
		<g>
			<g>
				<path fill="#3A3847" d="M399.94,256c-11.029,0-19.996-8.968-19.996-19.997c0-2.211,1.789-4,3.998-4c2.211,0,4,1.789,4,4
					c0,6.616,5.383,11.998,11.998,11.998c6.617,0,11.998-5.382,11.998-11.998c0-2.211,1.789-4,4-4s4,1.789,4,4
					C419.938,247.032,410.962,256,399.94,256z"/>
			</g>
		</g>
		<g>
			<g>
				<path fill="#3A3847" d="M431.937,256c-11.029,0-19.998-8.968-19.998-19.997c0-2.211,1.789-4,4-4s4,1.789,4,4
					c0,6.616,5.381,11.998,11.998,11.998c6.615,0,11.998-5.382,11.998-11.998c0-2.211,1.789-4,4-4c2.209,0,3.998,1.789,3.998,4
					C451.933,247.032,442.958,256,431.937,256z"/>
			</g>
		</g>
		<g>
			<g>
				<path fill="#3A3847" d="M463.931,256c-11.029,0-19.996-8.968-19.996-19.997c0-2.211,1.789-4,4-4c2.209,0,3.998,1.789,3.998,4
					c0,6.616,5.383,11.998,11.998,11.998c6.617,0,11.998-5.382,11.998-11.998c0-2.211,1.789-4,4-4s4,1.789,4,4
					C483.929,247.032,474.954,256,463.931,256z"/>
			</g>
		</g>
		<g>
			<g>
				<path fill="#3A3847" d="M495.927,256c-11.029,0-19.998-8.968-19.998-19.997c0-2.211,1.789-4,4-4s4,1.789,4,4
					c0,6.616,5.381,11.998,11.998,11.998c3.484,0,6.787-1.484,9.068-4.077c1.469-1.656,3.984-1.828,5.648-0.359
					c1.656,1.461,1.82,3.983,0.359,5.64C507.206,253.523,501.708,256,495.927,256z"/>
			</g>
		</g>
		<g>
			<g>
				<path fill="#3A3847" d="M3.999,250.563c-2.21,0-3.999-1.789-3.999-4v-26.559c0-2.21,1.789-3.999,3.999-3.999
					c2.211,0,4,1.789,4,3.999v26.559C7.999,248.774,6.21,250.563,3.999,250.563z"/>
			</g>
		</g>
		<g>
			<g>
				<path fill="#3A3847" d="M492.403,224.005H20.478c-2.211,0-4-1.789-4-4c0-2.21,1.789-3.999,4-3.999h471.926
					c2.211,0,4,1.789,4,3.999C496.403,222.216,494.614,224.005,492.403,224.005z"/>
			</g>
		</g>
		<g>
			<g>
				<path fill="#3A3847" d="M507.925,250.563c-2.211,0-4-1.789-4-4v-26.559c0-2.21,1.789-3.999,4-3.999s4,1.789,4,3.999v26.559
					C511.925,248.774,510.136,250.563,507.925,250.563z"/>
			</g>
		</g>
		<g>
			<g>
				<path fill="#3A3847" d="M70.063,216.006c-0.601,0-1.21-0.133-1.785-0.422c-1.976-0.992-2.777-3.39-1.789-5.366l11.998-23.997
					c0.992-1.968,3.394-2.781,5.366-1.789c1.977,0.992,2.777,3.39,1.789,5.366l-11.998,23.996
					C72.942,215.193,71.532,216.006,70.063,216.006z"/>
			</g>
		</g>
		<g>
			<g>
				<path fill="#3A3847" d="M101.024,216.006c-0.52,0-1.043-0.102-1.551-0.313c-2.035-0.852-2.992-3.203-2.137-5.233l10.081-23.997
					c0.855-2.046,3.19-2.984,5.237-2.14c2.035,0.851,2.992,3.202,2.136,5.233l-10.081,23.996
					C104.066,215.084,102.586,216.006,101.024,216.006z"/>
			</g>
		</g>
		<g>
			<g>
				<path fill="#3A3847" d="M131.98,216.006c-0.422,0-0.848-0.063-1.27-0.203c-2.093-0.703-3.226-2.968-2.523-5.062l7.999-23.919
					c0.699-2.101,2.972-3.218,5.062-2.53c2.093,0.703,3.226,2.968,2.522,5.062l-7.999,23.918
					C135.214,214.951,133.652,216.006,131.98,216.006z"/>
			</g>
		</g>
		<g>
			<g>
				<path fill="#3A3847" d="M163.019,216.006c-0.32,0-0.648-0.039-0.973-0.117c-2.144-0.539-3.449-2.71-2.91-4.851l5.999-23.997
					c0.531-2.148,2.684-3.452,4.846-2.913c2.145,0.539,3.449,2.71,2.91,4.851l-5.999,23.997
					C166.44,214.795,164.812,216.006,163.019,216.006z"/>
			</g>
		</g>
		<g>
			<g>
				<path fill="#3A3847" d="M193.976,216.006c-0.219,0-0.438-0.016-0.66-0.055c-2.18-0.359-3.652-2.422-3.289-4.601l4-23.997
					c0.359-2.187,2.413-3.694,4.6-3.288c2.18,0.359,3.652,2.421,3.289,4.601l-4,23.997
					C197.591,214.623,195.897,216.006,193.976,216.006z"/>
			</g>
		</g>
		<g>
			<g>
				<path fill="#3A3847" d="M225.009,216.006c-0.109,0-0.223-0.008-0.336-0.016c-2.202-0.18-3.834-2.117-3.65-4.32l1.999-23.997
					c0.18-2.195,2.093-3.772,4.315-3.647c2.203,0.18,3.836,2.117,3.652,4.319l-2,23.997
					C228.818,214.428,227.068,216.006,225.009,216.006z"/>
			</g>
		</g>
		<g>
			<g>
				<path fill="#3A3847" d="M255.962,216.006c-2.211,0-4-1.789-4-4V188.01c0-2.21,1.789-3.999,4-3.999c2.21,0,4,1.789,4,3.999
					v23.997C259.962,214.217,258.173,216.006,255.962,216.006z"/>
			</g>
		</g>
		<g>
			<g>
				<path fill="#3A3847" d="M39.029,216.006c-0.688,0-1.383-0.18-2.02-0.547c-1.906-1.125-2.542-3.57-1.425-5.476l14.08-23.997
					c1.113-1.906,3.57-2.531,5.472-1.429c1.906,1.125,2.542,3.569,1.425,5.476l-14.08,23.996
					C41.74,215.303,40.4,216.006,39.029,216.006z"/>
			</g>
		</g>
		<g>
			<g>
				<path fill="#3A3847" d="M441.935,216.006c-1.469,0-2.875-0.813-3.578-2.211l-11.998-23.996
					c-0.992-1.977-0.188-4.375,1.789-5.366c1.977-0.992,4.375-0.18,5.367,1.789l11.998,23.997c0.984,1.976,0.188,4.374-1.789,5.366
					C443.146,215.873,442.536,216.006,441.935,216.006z"/>
			</g>
		</g>
		<g>
			<g>
				<path fill="#3A3847" d="M410.978,216.006c-1.563,0-3.045-0.922-3.686-2.453l-10.078-23.996
					c-0.859-2.031,0.102-4.382,2.141-5.233c2.016-0.836,4.383,0.102,5.234,2.14l10.076,23.997c0.852,2.031-0.102,4.382-2.141,5.233
					C412.017,215.904,411.493,216.006,410.978,216.006z"/>
			</g>
		</g>
		<g>
			<g>
				<path fill="#3A3847" d="M379.944,216.006c-1.68,0-3.234-1.063-3.797-2.734l-7.998-23.996c-0.695-2.094,0.438-4.359,2.529-5.062
					c2.117-0.703,4.359,0.445,5.055,2.53l7.998,23.997c0.703,2.093-0.43,4.358-2.521,5.062
					C380.788,215.943,380.358,216.006,379.944,216.006z"/>
			</g>
		</g>
		<g>
			<g>
				<path fill="#3A3847" d="M348.979,216.006c-1.789,0-3.422-1.211-3.875-3.031l-5.998-23.997c-0.539-2.141,0.766-4.312,2.912-4.851
					c2.133-0.531,4.313,0.765,4.844,2.913l6,23.997c0.539,2.14-0.766,4.312-2.906,4.851
					C349.628,215.967,349.3,216.006,348.979,216.006z"/>
			</g>
		</g>
		<g>
			<g>
				<path fill="#3A3847" d="M317.944,216.006c-1.922,0-3.615-1.383-3.936-3.343l-4-23.997c-0.367-2.179,1.109-4.241,3.289-4.601
					c2.162-0.398,4.232,1.101,4.6,3.288l4,23.997c0.359,2.179-1.109,4.241-3.289,4.601
					C318.382,215.99,318.163,216.006,317.944,216.006z"/>
			</g>
		</g>
		<g>
			<g>
				<path fill="#3A3847" d="M286.989,216.006c-2.055,0-3.805-1.578-3.977-3.664l-2-23.997c-0.188-2.203,1.445-4.14,3.648-4.319
					c2.227-0.133,4.139,1.453,4.318,3.647l2,23.997c0.18,2.203-1.453,4.14-3.654,4.32
					C287.216,215.998,287.099,216.006,286.989,216.006z"/>
			</g>
		</g>
		<g>
			<g>
				<path fill="#3A3847" d="M472.97,216.006c-1.367,0-2.711-0.703-3.453-1.977l-14.076-23.996c-1.117-1.906-0.477-4.359,1.43-5.476
					c1.906-1.102,4.359-0.477,5.469,1.429l14.074,23.997c1.117,1.906,0.484,4.358-1.42,5.476
					C474.353,215.826,473.657,216.006,472.97,216.006z"/>
			</g>
		</g>
		<g>
			<g>
				<path fill="#3A3847" d="M83.987,479.967c-2.21,0-3.999-1.788-3.999-3.999V331.988c0-2.21,1.789-3.999,3.999-3.999
					c2.211,0,4,1.789,4,3.999v143.979C87.987,478.179,86.198,479.967,83.987,479.967z"/>
			</g>
		</g>
		<g>
			<g>
				<path fill="#3A3847" d="M171.974,479.967c-2.21,0-3.999-1.788-3.999-3.999V331.988c0-2.21,1.789-3.999,3.999-3.999
					c2.211,0,4,1.789,4,3.999v143.979C175.974,478.179,174.185,479.967,171.974,479.967z"/>
			</g>
		</g>
		<g>
			<g>
				<path fill="#3A3847" d="M171.974,335.988H83.987c-2.21,0-3.999-1.789-3.999-4c0-2.21,1.789-3.999,3.999-3.999h87.987
					c2.211,0,4,1.789,4,3.999C175.974,334.199,174.185,335.988,171.974,335.988z"/>
			</g>
		</g>
		<g>
			<g>
				<path fill="#3A3847" d="M427.937,415.977H219.968c-2.211,0-4-1.789-4-3.999V299.994c0-2.211,1.789-4,4-4h207.968
					c2.211,0,4,1.789,4,4v111.983C431.937,414.188,430.147,415.977,427.937,415.977z M223.966,407.978h199.97V303.993h-199.97
					V407.978z"/>
			</g>
		</g>
		<g>
			<g>
				<path fill="#3A3847" d="M171.974,319.99H83.987c-2.21,0-3.999-1.788-3.999-3.999v-15.997c0-2.211,1.789-4,3.999-4h87.987
					c2.211,0,4,1.789,4,4v15.997C175.974,318.202,174.185,319.99,171.974,319.99z M87.987,311.992h79.989v-7.999H87.987V311.992z"/>
			</g>
		</g>
		<g>
			<g>
				<path fill="#3A3847" d="M163.976,407.978H91.986c-2.211,0-4-1.788-4-3.999s1.789-4,4-4h71.989c2.211,0,4,1.789,4,4
					S166.187,407.978,163.976,407.978z"/>
			</g>
		</g>
		<g>
			<g>
				<path fill="#3A3847" d="M179.974,487.966H75.989c-2.21,0-4-1.788-4-3.999s1.789-4,4-4h103.985c2.21,0,3.998,1.789,3.998,4
					S182.184,487.966,179.974,487.966z"/>
			</g>
		</g>
		<g>
			<g>
				<path fill="#3A3847" d="M195.971,503.964H59.991c-2.211,0-4-1.789-4-3.999c0-2.211,1.789-4,4-4h135.98
					c2.21,0,3.999,1.789,3.999,4C199.97,502.175,198.181,503.964,195.971,503.964z"/>
			</g>
		</g>
		<g>
			<g>
				<path fill="#3A3847" d="M51.992,471.969H27.996c-2.21,0-4-1.789-4-4s1.789-3.999,4-3.999h23.997c2.211,0,4,1.788,4,3.999
					S54.203,471.969,51.992,471.969z"/>
			</g>
		</g>
		<g>
			<g>
				<path fill="#3A3847" d="M27.996,487.966c-2.21,0-4-1.788-4-3.999v-15.998c0-2.211,1.789-3.999,4-3.999s4,1.788,4,3.999v15.998
					C31.995,486.178,30.206,487.966,27.996,487.966z"/>
			</g>
		</g>
		<g>
			<g>
				<path fill="#3A3847" d="M59.991,487.966H27.996c-2.21,0-4-1.788-4-3.999s1.789-4,4-4h31.996c2.21,0,3.999,1.789,3.999,4
					S62.202,487.966,59.991,487.966z"/>
			</g>
		</g>
		<g>
			<g>
				<path fill="#3A3847" d="M483.929,471.969h-23.996c-2.211,0-4-1.789-4-4s1.789-3.999,4-3.999h23.996c2.211,0,4,1.788,4,3.999
					S486.14,471.969,483.929,471.969z"/>
			</g>
		</g>
		<g>
			<g>
				<path fill="#3A3847" d="M483.929,487.966c-2.211,0-4-1.788-4-3.999v-15.998c0-2.211,1.789-3.999,4-3.999s4,1.788,4,3.999v15.998
					C487.929,486.178,486.14,487.966,483.929,487.966z"/>
			</g>
		</g>
		<g>
			<g>
				<path fill="#3A3847" d="M483.929,487.966H195.971c-2.21,0-3.999-1.788-3.999-3.999s1.789-4,3.999-4h287.958c2.211,0,4,1.789,4,4
					S486.14,487.966,483.929,487.966z"/>
			</g>
		</g>
		<g>
			<g>
				<path fill="#3A3847" d="M427.937,479.967c-2.211,0-4-1.788-4-3.999V463.97h-199.97v11.998c0,2.211-1.788,3.999-3.998,3.999
					c-2.211,0-4-1.788-4-3.999v-15.997c0-2.211,1.789-4,4-4h207.968c2.211,0,4,1.789,4,4v15.997
					C431.937,478.179,430.147,479.967,427.937,479.967z"/>
			</g>
		</g>
		<g>
			<g>
				<path fill="#3A3847" d="M259.962,447.972c-6.617,0-11.998-5.382-11.998-11.998s5.381-11.998,11.998-11.998
					c6.615,0,11.998,5.382,11.998,11.998S266.577,447.972,259.962,447.972z M259.962,431.975c-2.207,0-4,1.797-4,3.999
					c0,2.203,1.792,3.999,4,3.999c2.205,0,3.998-1.796,3.998-3.999C263.96,433.771,262.167,431.975,259.962,431.975z"/>
			</g>
		</g>
		<g>
			<g>
				<path fill="#3A3847" d="M259.962,463.97c-2.211,0-4-1.789-4-3.999v-15.998c0-2.211,1.789-4,4-4c2.209,0,3.998,1.789,3.998,4
					v15.998C263.96,462.181,262.171,463.97,259.962,463.97z"/>
			</g>
		</g>
		<g>
			<g>
				<path fill="#3A3847" d="M323.952,447.972c-6.617,0-11.998-5.382-11.998-11.998s5.381-11.998,11.998-11.998
					c6.615,0,11.998,5.382,11.998,11.998S330.567,447.972,323.952,447.972z M323.952,431.975c-2.211,0-4,1.797-4,3.999
					c0,2.203,1.789,3.999,4,3.999c2.203,0,4-1.796,4-3.999C327.952,433.771,326.155,431.975,323.952,431.975z"/>
			</g>
		</g>
		<g>
			<g>
				<path fill="#3A3847" d="M323.952,463.97c-2.211,0-4-1.789-4-3.999v-15.998c0-2.211,1.789-4,4-4s4,1.789,4,4v15.998
					C327.952,462.181,326.163,463.97,323.952,463.97z"/>
			</g>
		</g>
		<g>
			<g>
				<path fill="#3A3847" d="M387.942,447.972c-6.615,0-11.998-5.382-11.998-11.998s5.383-11.998,11.998-11.998
					c6.617,0,11.998,5.382,11.998,11.998S394.56,447.972,387.942,447.972z M387.942,431.975c-2.211,0-4,1.797-4,3.999
					c0,2.203,1.789,3.999,4,3.999c2.203,0,4-1.796,4-3.999C391.942,433.771,390.146,431.975,387.942,431.975z"/>
			</g>
		</g>
		<g>
			<g>
				<path fill="#3A3847" d="M387.942,463.97c-2.211,0-4-1.789-4-3.999v-15.998c0-2.211,1.789-4,4-4s4,1.789,4,4v15.998
					C391.942,462.181,390.153,463.97,387.942,463.97z"/>
			</g>
		</g>
		<g>
			<g>
				<path fill="#3A3847" d="M243.964,463.97c-2.211,0-4-1.789-4-3.999v-7.999c0-2.211,1.789-4,4-4s4,1.789,4,4v7.999
					C247.964,462.181,246.175,463.97,243.964,463.97z"/>
			</g>
		</g>
		<g>
			<g>
				<path fill="#3A3847" d="M227.966,463.97c-2.211,0-4-1.789-4-3.999v-15.998c0-2.211,1.789-4,4-4s4,1.789,4,4v15.998
					C231.966,462.181,230.177,463.97,227.966,463.97z"/>
			</g>
		</g>
		<g>
			<g>
				<path fill="#3A3847" d="M419.938,463.97c-2.211,0-4-1.789-4-3.999v-15.998c0-2.211,1.789-4,4-4s3.998,1.789,3.998,4v15.998
					C423.937,462.181,422.149,463.97,419.938,463.97z"/>
			</g>
		</g>
		<g>
			<g>
				<path fill="#3A3847" d="M275.958,463.97c-2.209,0-3.998-1.789-3.998-3.999v-7.999c0-2.211,1.789-4,3.998-4c2.211,0,4,1.789,4,4
					v7.999C279.958,462.181,278.169,463.97,275.958,463.97z"/>
			</g>
		</g>
		<g>
			<g>
				<path fill="#3A3847" d="M291.956,463.97c-2.211,0-3.998-1.789-3.998-3.999v-15.998c0-2.211,1.787-4,3.998-4s4,1.789,4,4v15.998
					C295.956,462.181,294.167,463.97,291.956,463.97z"/>
			</g>
		</g>
		<g>
			<g>
				<path fill="#3A3847" d="M355.946,463.97c-2.209,0-3.998-1.789-3.998-3.999v-15.998c0-2.211,1.789-4,3.998-4c2.211,0,4,1.789,4,4
					v15.998C359.946,462.181,358.157,463.97,355.946,463.97z"/>
			</g>
		</g>
		<g>
			<g>
				<path fill="#3A3847" d="M307.954,463.97c-2.211,0-4-1.789-4-3.999v-7.999c0-2.211,1.789-4,4-4s4,1.789,4,4v7.999
					C311.954,462.181,310.165,463.97,307.954,463.97z"/>
			</g>
		</g>
		<g>
			<g>
				<path fill="#3A3847" d="M339.95,463.97c-2.211,0-4-1.789-4-3.999v-7.999c0-2.211,1.789-4,4-4c2.209,0,3.998,1.789,3.998,4v7.999
					C343.948,462.181,342.159,463.97,339.95,463.97z"/>
			</g>
		</g>
		<g>
			<g>
				<path fill="#3A3847" d="M371.944,463.97c-2.211,0-3.998-1.789-3.998-3.999v-7.999c0-2.211,1.787-4,3.998-4s4,1.789,4,4v7.999
					C375.944,462.181,374.155,463.97,371.944,463.97z"/>
			</g>
		</g>
		<g>
			<g>
				<path fill="#3A3847" d="M403.94,463.97c-2.211,0-4-1.789-4-3.999v-7.999c0-2.211,1.789-4,4-4s4,1.789,4,4v7.999
					C407.94,462.181,406.151,463.97,403.94,463.97z"/>
			</g>
		</g>
		<g>
			<g>
				<path fill="#3A3847" d="M255.962,144.017c-37.49,0-67.99-30.504-67.99-67.99c0-37.487,30.5-67.99,67.99-67.99
					c37.486,0,67.99,30.503,67.99,67.99C323.952,113.513,293.448,144.017,255.962,144.017z M255.962,16.035
					c-33.081,0-59.991,26.91-59.991,59.991s26.91,59.991,59.991,59.991c33.08,0,59.99-26.91,59.99-59.991
					S289.042,16.035,255.962,16.035z"/>
			</g>
		</g>
		<g>
			<g>
				<path fill="#3A3847" d="M255.962,160.014c-2.211,0-4-1.789-4-3.999v-15.998c0-2.21,1.789-3.999,4-3.999c2.21,0,4,1.789,4,3.999
					v15.998C259.962,158.225,258.173,160.014,255.962,160.014z"/>
			</g>
		</g>
		<g>
			<g>
				<path fill="#3A3847" d="M284.114,112.021c-0.055,0-0.102,0-0.156,0h-55.992c-1.199,0-2.332-0.539-3.094-1.46
					c-0.758-0.93-1.063-2.148-0.828-3.32l8-39.994c0.375-1.875,2.016-3.218,3.921-3.218h39.993c1.906,0,3.547,1.343,3.922,3.218
					l7.789,38.932c0.281,0.554,0.445,1.179,0.445,1.843C288.114,110.232,286.325,112.021,284.114,112.021z M232.845,104.022h46.23
					l-6.396-31.996h-33.437L232.845,104.022z"/>
			</g>
		</g>
		<g>
			<g>
				<path fill="#3A3847" d="M263.96,56.029c-2.211,0-3.998-1.789-3.998-4c0-2.242-1.758-4-4-4c-2.207,0-4,1.797-4,4
					c0,2.21-1.789,4-3.998,4c-2.211,0-4-1.789-4-4c0-6.616,5.382-11.999,11.998-11.999c6.615,0,11.998,5.382,11.998,11.999
					C267.96,54.24,266.171,56.029,263.96,56.029z"/>
			</g>
		</g>
	</g>
</g>
</svg>
